<svg width="43" height="34" viewBox="0 0 43 34" fill="none" xmlns="http://www.w3.org/2000/svg">
<path d="M14.2505 26.5546C13.6871 26.3745 13.376 26.2873 13.2019 26.3042C12.988 26.3249 12.6776 26.505 12.0569 26.8651C10.9624 27.5002 9.58354 27.9564 7.53873 27.9172C6.50476 27.8974 5.98777 27.8874 5.75632 27.5769C5.52488 27.2665 5.81314 26.8367 6.38964 25.9771C7.18922 24.7848 7.69582 23.42 6.92818 22.3264C5.60611 20.7642 4.48311 18.9143 4.31899 16.9163C4.23083 15.8428 4.23083 14.731 4.31899 13.6575C4.76957 8.17173 10.2454 3.80202 17.1197 3.44245C19.4602 3.32004 21.9088 3.31978 24.2541 3.44245C31.0992 3.80049 36.5576 8.13465 37.0488 13.5876" stroke="black" stroke-width="1.5" stroke-linecap="round" stroke-linejoin="round"/>
<path d="M26.1743 30.1677C21.8413 29.9481 18.3898 27.2777 18.1058 23.9253C18.0503 23.2692 18.0503 22.5898 18.1058 21.9337C18.3898 18.5813 21.8413 15.9109 26.1743 15.6911C27.6526 15.6162 29.196 15.6163 30.6712 15.6911C35.0042 15.9109 38.4557 18.5813 38.7397 21.9337C38.7951 22.5898 38.7951 23.2692 38.7397 23.9253C38.6361 25.1462 37.9282 26.2768 37.0951 27.2313C36.6111 27.8996 36.9305 28.7337 37.4345 29.4623C37.7979 29.9877 37.9795 30.2503 37.8336 30.44C37.6877 30.6299 37.3618 30.6359 36.7101 30.648C35.4213 30.6719 34.5522 30.3932 33.8623 30.005C33.4711 29.785 33.2754 29.675 33.1405 29.6623C33.0057 29.6496 32.7403 29.733 32.2098 29.8996C31.733 30.0495 31.1791 30.142 30.6712 30.1677C29.196 30.2426 27.6526 30.2428 26.1743 30.1677Z" stroke="black" stroke-width="1.5" stroke-linejoin="round"/>
</svg>
