<svg width="42" height="34" viewBox="0 0 42 34" fill="none" xmlns="http://www.w3.org/2000/svg">
<path d="M4.17508 17.6824C4.17508 16.1747 5.68616 14.9526 7.55018 14.9526C10.3462 14.9526 12.6128 16.7858 12.6128 19.0474V24.5072C12.6128 26.7687 10.3462 28.602 7.55018 28.602C5.68616 28.602 4.17508 27.3798 4.17508 25.8721V17.6824Z" stroke="black" stroke-width="1.5" stroke-linecap="round" stroke-linejoin="round"/>
<path d="M26.9211 11.2758L26.4717 12.4497C26.1035 13.4117 25.9194 13.8927 26.0609 14.2725C26.1755 14.5798 26.427 14.8447 26.7697 15.019C27.1933 15.2344 27.8341 15.2344 29.1156 15.2344H29.7974C34.1345 15.2344 36.303 15.2344 37.3274 16.2729C37.4443 16.3915 37.5484 16.5177 37.6386 16.6501C38.4265 17.8082 37.5307 19.3683 35.7391 22.4885C34.0949 25.3519 33.2727 26.7836 31.7463 27.6263C31.5986 27.7078 31.4468 27.7848 31.2912 27.8569C29.6841 28.602 27.6931 28.602 23.7109 28.602H22.8472C18.0226 28.602 15.6104 28.602 14.1116 27.4275C12.6129 26.2528 12.6129 24.3623 12.6129 20.5815V19.2525C12.6129 17.2656 12.6129 16.2722 13.0488 15.3629C13.4848 14.4535 14.3196 13.7059 15.9891 12.2106L22.8936 6.0266C23.0667 5.87152 23.1533 5.79396 23.2297 5.74022C23.9422 5.23865 25.042 5.2951 25.6651 5.86525C25.7319 5.92633 25.8048 6.01207 25.9506 6.18354C26.1787 6.45177 26.2928 6.58589 26.3924 6.71875C27.2824 7.90827 27.5517 9.3213 27.144 10.6628C27.0985 10.8126 27.0394 10.9671 26.9211 11.2758Z" stroke="black" stroke-width="1.5" stroke-linecap="round" stroke-linejoin="round"/>
</svg>
